<svg width="30" height="30" viewBox="0 0 30 30" fill="none" xmlns="http://www.w3.org/2000/svg">
<g clip-path="url(#clip0_254_577)">
<path d="M6.71417 20.5334C8.06269 20.5334 9.15588 19.4402 9.15588 18.0917C9.15588 16.7432 8.06269 15.65 6.71417 15.65C5.36565 15.65 4.27246 16.7432 4.27246 18.0917C4.27246 19.4402 5.36565 20.5334 6.71417 20.5334Z" fill="current"/>
<path d="M6.71415 21.3707C4.9063 21.3707 3.43555 19.8999 3.43555 18.0921C3.43555 16.2843 4.90636 14.8134 6.71415 14.8134C8.52193 14.8134 9.99275 16.2842 9.99275 18.0921C9.99275 19.9 8.52199 21.3707 6.71415 21.3707ZM6.71415 16.4881C5.82968 16.4881 5.11021 17.2076 5.11021 18.0921C5.11021 18.9765 5.82974 19.696 6.71415 19.696C7.59856 19.696 8.31809 18.9765 8.31809 18.0921C8.31809 17.2076 7.59856 16.4881 6.71415 16.4881Z" fill="current"/>
<path d="M6.7137 29.0773C6.51038 29.0773 6.30724 29.0037 6.14705 28.8564C5.89609 28.6257 0 23.1481 0 18.0708C0 17.3582 0.111269 16.6561 0.330819 15.9841C0.474432 15.5445 0.94734 15.3046 1.38679 15.4482C1.82642 15.5919 2.0663 16.0646 1.92269 16.5042C1.75816 17.0081 1.67466 17.5352 1.67466 18.0708C1.67466 21.5827 5.29176 25.6167 6.71511 27.068C6.94222 26.8374 7.2247 26.5416 7.53823 26.1936C7.84778 25.8501 8.37723 25.8224 8.72082 26.1319C9.06436 26.4415 9.09201 26.9709 8.78247 27.3145C7.93333 28.2571 7.30521 28.8338 7.27896 28.8578C7.119 29.0041 6.91638 29.0773 6.7137 29.0773Z" fill="current"/>
<path d="M10.3723 24.7818C10.2113 24.7818 10.0487 24.7355 9.90512 24.6388C9.52163 24.3804 9.4202 23.8599 9.6786 23.4764C11.055 21.4337 11.7529 19.615 11.7529 18.0707C11.7529 15.2921 9.49239 13.0317 6.71383 13.0317C5.63283 13.0317 4.60253 13.3687 3.73446 14.0063C3.36187 14.2801 2.83775 14.1999 2.56394 13.8271C2.29013 13.4544 2.37035 12.9304 2.74312 12.6566C3.90058 11.8064 5.27371 11.3569 6.71388 11.3569C10.4159 11.3569 13.4276 14.3687 13.4276 18.0707C13.4276 19.9544 12.6335 22.088 11.0674 24.4122C10.9058 24.6522 10.6414 24.7818 10.3723 24.7818Z" fill="current"/>
<path d="M26.8772 5.38317L29.1629 1.76009H19.3125V9.00624H29.1629L26.8772 5.38317Z" fill="current"/>
<path d="M27.8677 5.38316L29.8716 2.20687C30.0344 1.94888 30.044 1.6228 29.8968 1.35574C29.7494 1.08861 29.4686 0.922729 29.1635 0.922729H19.3129C18.8506 0.922729 18.4756 1.29761 18.4756 1.76009V5.61296V9.00629V14.992C18.4756 15.4544 18.8505 15.8293 19.3129 15.8293C19.7754 15.8293 20.1503 15.4544 20.1503 14.992V9.84365H29.1635C29.4685 9.84365 29.7493 9.67777 29.8967 9.41064C30.044 9.14352 30.0344 8.81744 29.8716 8.55946L27.8677 5.38316ZM26.1694 5.82994L27.6451 8.16887H20.1503V5.61291V2.59739H27.6451L26.1695 4.93633C25.9971 5.20926 25.9971 5.55689 26.1694 5.82994Z" fill="current"/>
<path d="M19.8835 28.7263H10.8012C10.3389 28.7263 9.96387 28.3514 9.96387 27.8889C9.96387 27.4264 10.3388 27.0515 10.8012 27.0515H19.0461V24.0056H14.8594C14.397 24.0056 14.022 23.6307 14.022 23.1682V18.6667C14.022 18.2042 14.3969 17.8293 14.8594 17.8293H19.7626C20.2249 17.8293 20.5999 18.2042 20.5999 18.6667C20.5999 19.1292 20.225 19.5041 19.7626 19.5041H15.6967V22.3309H19.8835C20.3458 22.3309 20.7208 22.7058 20.7208 23.1683V27.889C20.7208 28.3514 20.3459 28.7263 19.8835 28.7263Z" fill="current"/>
</g>
<defs>
<clipPath id="clip0_254_577">
<rect width="30" height="30" fill="white"/>
</clipPath>
</defs>
</svg>
