<svg width="30" height="30" viewBox="0 0 30 30" fill="none" xmlns="http://www.w3.org/2000/svg">
<path d="M11.25 26.25V17C11.25 16.2999 11.25 15.9499 11.3862 15.6825C11.5061 15.4473 11.6973 15.2561 11.9325 15.1362C12.1999 15 12.5499 15 13.25 15H16.75C17.4501 15 17.8001 15 18.0675 15.1362C18.3027 15.2561 18.4939 15.4473 18.6138 15.6825C18.75 15.9499 18.75 16.2999 18.75 17V26.25M13.7721 3.45502L5.29424 10.0489C4.72753 10.4897 4.44417 10.7101 4.24003 10.9861C4.05921 11.2306 3.9245 11.506 3.84253 11.7988C3.75 12.1294 3.75 12.4884 3.75 13.2063V22.25C3.75 23.6501 3.75 24.3502 4.02248 24.885C4.26217 25.3554 4.64462 25.7378 5.11502 25.9775C5.6498 26.25 6.34987 26.25 7.75 26.25H22.25C23.6501 26.25 24.3502 26.25 24.885 25.9775C25.3554 25.7378 25.7378 25.3554 25.9775 24.885C26.25 24.3502 26.25 23.6501 26.25 22.25V13.2063C26.25 12.4884 26.25 12.1294 26.1575 11.7988C26.0755 11.506 25.9408 11.2306 25.76 10.9861C25.5558 10.7101 25.2725 10.4897 24.7058 10.0489L16.2279 3.45502C15.7887 3.11346 15.5691 2.94267 15.3267 2.87702C15.1127 2.8191 14.8873 2.8191 14.6733 2.87702C14.4309 2.94267 14.2113 3.11346 13.7721 3.45502Z" stroke="current" stroke-width="2" stroke-linecap="round" stroke-linejoin="round"/>
</svg>
