<svg width="30" height="30" viewBox="0 0 30 30" fill="none" xmlns="http://www.w3.org/2000/svg">
<path d="M5.00003 27.2718C5.75325 27.5 6.77061 27.5 8.5 27.5H21.5C23.2294 27.5 24.2467 27.5 25 27.2718M5.00003 27.2718C4.83853 27.2229 4.68917 27.1634 4.54754 27.0913C3.84193 26.7317 3.26825 26.1581 2.90873 25.4525C2.5 24.6503 2.5 23.6002 2.5 21.5V8.5C2.5 6.3998 2.5 5.3497 2.90873 4.54754C3.26825 3.84193 3.84193 3.26825 4.54754 2.90873C5.3497 2.5 6.3998 2.5 8.5 2.5H21.5C23.6002 2.5 24.6503 2.5 25.4525 2.90873C26.1581 3.26825 26.7317 3.84193 27.0913 4.54754C27.5 5.3497 27.5 6.3998 27.5 8.5V21.5C27.5 23.6002 27.5 24.6503 27.0913 25.4525C26.7317 26.1581 26.1581 26.7317 25.4525 27.0913C25.3108 27.1634 25.1615 27.2229 25 27.2718M5.00003 27.2718C5.00044 26.2601 5.00651 25.7248 5.09607 25.2745C5.49061 23.2911 7.0411 21.7406 9.02455 21.3461C9.50754 21.25 10.0884 21.25 11.25 21.25H18.75C19.9116 21.25 20.4925 21.25 20.9755 21.3461C22.9589 21.7406 24.5094 23.2911 24.9039 25.2745C24.9935 25.7248 24.9996 26.2601 25 27.2718M20 11.875C20 14.6364 17.7614 16.875 15 16.875C12.2386 16.875 10 14.6364 10 11.875C10 9.11358 12.2386 6.875 15 6.875C17.7614 6.875 20 9.11358 20 11.875Z" stroke="current" stroke-width="2" stroke-linecap="round" stroke-linejoin="round"/>
</svg>
