<svg width="30" height="30" viewBox="0 0 30 30" fill="none" xmlns="http://www.w3.org/2000/svg">
<path d="M15 18.75C10.8579 18.75 7.5 15.3921 7.5 11.25V4.30556C7.5 3.78825 7.5 3.52959 7.57538 3.32247C7.70176 2.97527 7.97527 2.70176 8.32247 2.57538C8.52959 2.5 8.78825 2.5 9.30556 2.5H20.6944C21.2118 2.5 21.4704 2.5 21.6775 2.57538C22.0247 2.70176 22.2982 2.97527 22.4246 3.32247C22.5 3.52959 22.5 3.78825 22.5 4.30556V11.25C22.5 15.3921 19.1421 18.75 15 18.75ZM15 18.75V22.5M22.5 5H25.625C26.2074 5 26.4986 5 26.7284 5.09515C27.0346 5.22202 27.278 5.46536 27.4048 5.77165C27.5 6.00136 27.5 6.29257 27.5 6.875V7.5C27.5 8.66246 27.5 9.2437 27.3722 9.72057C27.0255 11.0147 26.0147 12.0255 24.7206 12.3722C24.2437 12.5 23.6625 12.5 22.5 12.5M7.5 5H4.375C3.79257 5 3.50136 5 3.27165 5.09515C2.96536 5.22202 2.72202 5.46536 2.59515 5.77165C2.5 6.00136 2.5 6.29257 2.5 6.875V7.5C2.5 8.66246 2.5 9.2437 2.62778 9.72057C2.97453 11.0147 3.98533 12.0255 5.27943 12.3722C5.7563 12.5 6.33754 12.5 7.5 12.5M9.30556 27.5H20.6944C21.0013 27.5 21.25 27.2513 21.25 26.9444C21.25 24.4898 19.2602 22.5 16.8056 22.5H13.1944C10.7398 22.5 8.75 24.4898 8.75 26.9444C8.75 27.2513 8.99873 27.5 9.30556 27.5Z" stroke="current" stroke-width="2" stroke-linecap="round" stroke-linejoin="round"/>
</svg>
